<svg width="759" height="295" viewBox="0 0 759 295" fill="none" xmlns="http://www.w3.org/2000/svg">
<rect width="150" height="87" transform="matrix(-1 0 0 1 187 106)" fill="black"/>
<path d="M112.5 11L15.0721 108.5H209.928L112.5 11Z" fill="black"/>
<rect width="25" height="57" transform="matrix(-1 0 0 1 72 33)" fill="black"/>
<rect width="175.029" height="101.517" transform="matrix(-1 0 0 1 311.659 110.852)" fill="white"/>
<path d="M224.728 0L111.043 113.769H338.413L224.728 0Z" fill="white"/>
<rect width="29.1716" height="66.5111" transform="matrix(-1 0 0 1 177.47 25.671)" fill="white"/>
<rect width="150" height="87" transform="matrix(-1 0 0 1 299 106)" fill="#2A2A2A"/>
<path d="M224.5 11L127.072 108.5H321.928L224.5 11Z" fill="#2A2A2A"/>
<rect width="25" height="57" transform="matrix(-1 0 0 1 184 33)" fill="#2A2A2A"/>
<rect width="175.029" height="101.517" transform="matrix(-1 0 0 1 424.203 110.852)" fill="white"/>
<path d="M337.272 0L223.587 113.769H450.957L337.272 0Z" fill="white"/>
<rect width="29.1716" height="66.5111" transform="matrix(-1 0 0 1 290.014 25.671)" fill="white"/>
<rect width="150" height="87" transform="matrix(-1 0 0 1 411.544 106)" fill="#545454"/>
<path d="M337.044 11L239.616 108.5H434.472L337.044 11Z" fill="#545454"/>
<rect width="25" height="57" transform="matrix(-1 0 0 1 296.544 33)" fill="#545454"/>
<rect x="571.544" y="106" width="150" height="87" fill="black"/>
<path d="M646.044 11L743.472 108.5H548.616L646.044 11Z" fill="black"/>
<rect x="686.544" y="33" width="25" height="57" fill="black"/>
<rect x="446.885" y="110.852" width="175.029" height="101.517" fill="white"/>
<path d="M533.816 0L647.501 113.769H420.131L533.816 0Z" fill="white"/>
<rect x="581.074" y="25.671" width="29.1716" height="66.5111" fill="white"/>
<rect x="459.544" y="106" width="150" height="87" fill="#2A2A2A"/>
<path d="M534.044 11L631.472 108.5H436.616L534.044 11Z" fill="#2A2A2A"/>
<rect x="574.544" y="33" width="25" height="57" fill="#2A2A2A"/>
<rect x="334.341" y="110.852" width="175.029" height="101.517" fill="white"/>
<path d="M421.272 0L534.957 113.769H307.587L421.272 0Z" fill="white"/>
<rect x="468.53" y="25.671" width="29.1716" height="66.5111" fill="white"/>
<rect x="347" y="106" width="150" height="87" fill="#8B3030"/>
<path d="M421.5 11L518.928 108.5H324.072L421.5 11Z" fill="#8B3030"/>
<rect x="462" y="33" width="25" height="57" fill="#8B3030"/>
<path d="M224.696 277.024C220.643 277.024 217.251 276.192 214.52 274.528C211.832 272.821 209.805 270.368 208.44 267.168C207.117 263.968 206.456 260.149 206.456 255.712C206.456 251.915 206.861 248.416 207.672 245.216C208.525 242.016 209.763 239.264 211.384 236.96C213.005 234.613 215.053 232.8 217.528 231.52C220.003 230.197 222.883 229.536 226.168 229.536C230.691 229.536 234.296 230.645 236.984 232.864C239.715 235.04 241.485 238.027 242.296 241.824L232.248 242.528C231.736 241.205 231.032 240.203 230.136 239.52C229.24 238.795 227.896 238.432 226.104 238.432C223.373 238.432 221.219 239.627 219.64 242.016C218.104 244.405 217.229 248.139 217.016 253.216L215.608 252.96C216.035 251.851 216.739 250.805 217.72 249.824C218.744 248.8 220.024 247.989 221.56 247.392C223.096 246.752 224.931 246.432 227.064 246.432C230.179 246.432 232.888 247.051 235.192 248.288C237.539 249.483 239.352 251.189 240.632 253.408C241.912 255.584 242.552 258.144 242.552 261.088C242.552 264.501 241.805 267.403 240.312 269.792C238.819 272.139 236.728 273.931 234.04 275.168C231.395 276.405 228.28 277.024 224.696 277.024ZM224.568 268.448C226.659 268.448 228.344 267.808 229.624 266.528C230.947 265.205 231.608 263.435 231.608 261.216C231.608 259.765 231.309 258.507 230.712 257.44C230.157 256.331 229.368 255.477 228.344 254.88C227.363 254.24 226.168 253.92 224.76 253.92C223.352 253.92 222.093 254.24 220.984 254.88C219.917 255.477 219.064 256.331 218.424 257.44C217.827 258.507 217.528 259.765 217.528 261.216C217.528 262.667 217.805 263.947 218.36 265.056C218.957 266.123 219.789 266.955 220.856 267.552C221.923 268.149 223.16 268.448 224.568 268.448ZM250.415 276V230.56H261.551V276H250.415ZM265.954 276L281.57 253.216L266.082 230.56H278.946L288.226 244.896L297.186 230.56H310.114L294.69 253.088L310.306 276H297.442L288.098 261.408L278.882 276H265.954ZM331.067 276V230.56H337.979V252.448L334.651 250.016H362.299L358.971 252.448V230.56H365.883V276H358.971V253.856L362.299 256.288H334.651L337.979 253.856V276H331.067ZM394.438 277.024C390.043 277.024 386.267 276.085 383.11 274.208C379.952 272.288 377.52 269.557 375.814 266.016C374.107 262.475 373.254 258.251 373.254 253.344C373.254 248.437 374.107 244.213 375.814 240.672C377.52 237.088 379.952 234.336 383.11 232.416C386.267 230.496 390.043 229.536 394.438 229.536C398.875 229.536 402.672 230.496 405.83 232.416C409.03 234.336 411.462 237.088 413.126 240.672C414.832 244.213 415.686 248.437 415.686 253.344C415.686 258.251 414.832 262.475 413.126 266.016C411.462 269.557 409.03 272.288 405.83 274.208C402.672 276.085 398.875 277.024 394.438 277.024ZM394.438 270.688C397.382 270.688 399.899 270.005 401.99 268.64C404.123 267.275 405.744 265.312 406.854 262.752C407.963 260.149 408.518 257.013 408.518 253.344C408.518 249.675 407.963 246.539 406.854 243.936C405.744 241.333 404.123 239.349 401.99 237.984C399.899 236.576 397.382 235.872 394.438 235.872C391.536 235.872 389.04 236.576 386.95 237.984C384.859 239.349 383.238 241.333 382.086 243.936C380.976 246.539 380.422 249.675 380.422 253.344C380.422 257.013 380.976 260.149 382.086 262.752C383.238 265.312 384.859 267.275 386.95 268.64C389.04 270.005 391.536 270.688 394.438 270.688ZM423.067 276V230.56H432.539L446.043 267.872L459.547 230.56H469.019V276H462.107V242.72L449.882 275.936H442.203L429.979 242.72V276H423.067ZM478.879 276V230.56H508.447V236.896H485.791V250.144H507.679V256.288H485.791V269.664H508.959V276H478.879ZM534.263 277.024C530.636 277.024 527.479 276.363 524.791 275.04C522.146 273.717 520.055 271.883 518.519 269.536C516.983 267.189 516.087 264.459 515.831 261.344L522.935 260.896C523.234 263.029 523.852 264.843 524.791 266.336C525.73 267.787 526.988 268.896 528.567 269.664C530.188 270.389 532.13 270.752 534.391 270.752C536.354 270.752 538.018 270.517 539.383 270.048C540.791 269.536 541.858 268.789 542.583 267.808C543.308 266.827 543.671 265.632 543.671 264.224C543.671 262.944 543.351 261.813 542.711 260.832C542.114 259.808 540.94 258.891 539.191 258.08C537.484 257.227 534.967 256.395 531.639 255.584C528.012 254.688 525.111 253.707 522.935 252.64C520.759 251.573 519.18 250.251 518.199 248.672C517.26 247.051 516.791 245.067 516.791 242.72C516.791 240.117 517.41 237.835 518.647 235.872C519.927 233.867 521.74 232.309 524.087 231.2C526.434 230.091 529.25 229.536 532.535 229.536C535.991 229.536 538.935 230.176 541.367 231.456C543.842 232.736 545.783 234.485 547.191 236.704C548.642 238.923 549.538 241.461 549.879 244.32L542.775 244.704C542.562 242.955 542.028 241.419 541.175 240.096C540.322 238.731 539.17 237.685 537.719 236.96C536.268 236.192 534.498 235.808 532.407 235.808C529.762 235.808 527.671 236.427 526.135 237.664C524.642 238.859 523.895 240.459 523.895 242.464C523.895 243.744 524.194 244.832 524.791 245.728C525.431 246.581 526.54 247.328 528.119 247.968C529.74 248.608 532.023 249.291 534.967 250.016C538.892 250.912 542.007 252.021 544.311 253.344C546.658 254.624 548.322 256.139 549.303 257.888C550.284 259.637 550.775 261.621 550.775 263.84C550.775 266.528 550.071 268.875 548.663 270.88C547.298 272.843 545.378 274.357 542.903 275.424C540.428 276.491 537.548 277.024 534.263 277.024Z" fill="black"/>
</svg>
