<svg width="918" height="343" viewBox="0 0 918 343" fill="none" xmlns="http://www.w3.org/2000/svg">
<rect width="918" height="343" fill="white"/>
<rect width="150" height="87" transform="matrix(-1 0 0 1 267 130)" fill="black"/>
<path d="M192.5 35L95.0721 132.5H289.928L192.5 35Z" fill="black"/>
<rect width="25" height="57" transform="matrix(-1 0 0 1 152 57)" fill="black"/>
<rect width="175.029" height="101.517" transform="matrix(-1 0 0 1 391.659 134.852)" fill="white"/>
<path d="M304.728 24L191.043 137.769H418.413L304.728 24Z" fill="white"/>
<rect width="29.1716" height="66.5111" transform="matrix(-1 0 0 1 257.47 49.671)" fill="white"/>
<rect width="150" height="87" transform="matrix(-1 0 0 1 379 130)" fill="#2A2A2A"/>
<path d="M304.5 35L207.072 132.5H401.928L304.5 35Z" fill="#2A2A2A"/>
<rect width="25" height="57" transform="matrix(-1 0 0 1 264 57)" fill="#2A2A2A"/>
<rect width="175.029" height="101.517" transform="matrix(-1 0 0 1 504.203 134.852)" fill="white"/>
<path d="M417.272 24L303.587 137.769H530.957L417.272 24Z" fill="white"/>
<rect width="29.1716" height="66.5111" transform="matrix(-1 0 0 1 370.014 49.671)" fill="white"/>
<rect width="150" height="87" transform="matrix(-1 0 0 1 491.544 130)" fill="#545454"/>
<path d="M417.044 35L319.616 132.5H514.472L417.044 35Z" fill="#545454"/>
<rect width="25" height="57" transform="matrix(-1 0 0 1 376.544 57)" fill="#545454"/>
<rect x="651.544" y="130" width="150" height="87" fill="black"/>
<path d="M726.044 35L823.472 132.5H628.616L726.044 35Z" fill="black"/>
<rect x="766.544" y="57" width="25" height="57" fill="black"/>
<rect x="526.885" y="134.852" width="175.029" height="101.517" fill="white"/>
<path d="M613.816 24L727.501 137.769H500.131L613.816 24Z" fill="white"/>
<rect x="661.074" y="49.671" width="29.1716" height="66.5111" fill="white"/>
<rect x="539.544" y="130" width="150" height="87" fill="#2A2A2A"/>
<path d="M614.044 35L711.472 132.5H516.616L614.044 35Z" fill="#2A2A2A"/>
<rect x="654.544" y="57" width="25" height="57" fill="#2A2A2A"/>
<rect x="414.341" y="134.852" width="175.029" height="101.517" fill="white"/>
<path d="M501.272 24L614.957 137.769H387.587L501.272 24Z" fill="white"/>
<rect x="548.53" y="49.671" width="29.1716" height="66.5111" fill="white"/>
<rect x="427" y="130" width="150" height="87" fill="#8B3030"/>
<path d="M501.5 35L598.928 132.5H404.072L501.5 35Z" fill="#8B3030"/>
<rect x="542" y="57" width="25" height="57" fill="#8B3030"/>
<path d="M304.696 301.024C300.643 301.024 297.251 300.192 294.52 298.528C291.832 296.821 289.805 294.368 288.44 291.168C287.117 287.968 286.456 284.149 286.456 279.712C286.456 275.915 286.861 272.416 287.672 269.216C288.525 266.016 289.763 263.264 291.384 260.96C293.005 258.613 295.053 256.8 297.528 255.52C300.003 254.197 302.883 253.536 306.168 253.536C310.691 253.536 314.296 254.645 316.984 256.864C319.715 259.04 321.485 262.027 322.296 265.824L312.248 266.528C311.736 265.205 311.032 264.203 310.136 263.52C309.24 262.795 307.896 262.432 306.104 262.432C303.373 262.432 301.219 263.627 299.64 266.016C298.104 268.405 297.229 272.139 297.016 277.216L295.608 276.96C296.035 275.851 296.739 274.805 297.72 273.824C298.744 272.8 300.024 271.989 301.56 271.392C303.096 270.752 304.931 270.432 307.064 270.432C310.179 270.432 312.888 271.051 315.192 272.288C317.539 273.483 319.352 275.189 320.632 277.408C321.912 279.584 322.552 282.144 322.552 285.088C322.552 288.501 321.805 291.403 320.312 293.792C318.819 296.139 316.728 297.931 314.04 299.168C311.395 300.405 308.28 301.024 304.696 301.024ZM304.568 292.448C306.659 292.448 308.344 291.808 309.624 290.528C310.947 289.205 311.608 287.435 311.608 285.216C311.608 283.765 311.309 282.507 310.712 281.44C310.157 280.331 309.368 279.477 308.344 278.88C307.363 278.24 306.168 277.92 304.76 277.92C303.352 277.92 302.093 278.24 300.984 278.88C299.917 279.477 299.064 280.331 298.424 281.44C297.827 282.507 297.528 283.765 297.528 285.216C297.528 286.667 297.805 287.947 298.36 289.056C298.957 290.123 299.789 290.955 300.856 291.552C301.923 292.149 303.16 292.448 304.568 292.448ZM330.415 300V254.56H341.551V300H330.415ZM345.954 300L361.57 277.216L346.082 254.56H358.946L368.226 268.896L377.186 254.56H390.114L374.69 277.088L390.306 300H377.442L368.098 285.408L358.882 300H345.954ZM411.067 300V254.56H417.979V276.448L414.651 274.016H442.299L438.971 276.448V254.56H445.883V300H438.971V277.856L442.299 280.288H414.651L417.979 277.856V300H411.067ZM474.438 301.024C470.043 301.024 466.267 300.085 463.11 298.208C459.952 296.288 457.52 293.557 455.814 290.016C454.107 286.475 453.254 282.251 453.254 277.344C453.254 272.437 454.107 268.213 455.814 264.672C457.52 261.088 459.952 258.336 463.11 256.416C466.267 254.496 470.043 253.536 474.438 253.536C478.875 253.536 482.672 254.496 485.83 256.416C489.03 258.336 491.462 261.088 493.126 264.672C494.832 268.213 495.686 272.437 495.686 277.344C495.686 282.251 494.832 286.475 493.126 290.016C491.462 293.557 489.03 296.288 485.83 298.208C482.672 300.085 478.875 301.024 474.438 301.024ZM474.438 294.688C477.382 294.688 479.899 294.005 481.99 292.64C484.123 291.275 485.744 289.312 486.854 286.752C487.963 284.149 488.518 281.013 488.518 277.344C488.518 273.675 487.963 270.539 486.854 267.936C485.744 265.333 484.123 263.349 481.99 261.984C479.899 260.576 477.382 259.872 474.438 259.872C471.536 259.872 469.04 260.576 466.95 261.984C464.859 263.349 463.238 265.333 462.086 267.936C460.976 270.539 460.422 273.675 460.422 277.344C460.422 281.013 460.976 284.149 462.086 286.752C463.238 289.312 464.859 291.275 466.95 292.64C469.04 294.005 471.536 294.688 474.438 294.688ZM503.067 300V254.56H512.539L526.043 291.872L539.547 254.56H549.019V300H542.107V266.72L529.882 299.936H522.203L509.979 266.72V300H503.067ZM558.879 300V254.56H588.447V260.896H565.791V274.144H587.679V280.288H565.791V293.664H588.959V300H558.879ZM614.263 301.024C610.636 301.024 607.479 300.363 604.791 299.04C602.146 297.717 600.055 295.883 598.519 293.536C596.983 291.189 596.087 288.459 595.831 285.344L602.935 284.896C603.234 287.029 603.852 288.843 604.791 290.336C605.73 291.787 606.988 292.896 608.567 293.664C610.188 294.389 612.13 294.752 614.391 294.752C616.354 294.752 618.018 294.517 619.383 294.048C620.791 293.536 621.858 292.789 622.583 291.808C623.308 290.827 623.671 289.632 623.671 288.224C623.671 286.944 623.351 285.813 622.711 284.832C622.114 283.808 620.94 282.891 619.191 282.08C617.484 281.227 614.967 280.395 611.639 279.584C608.012 278.688 605.111 277.707 602.935 276.64C600.759 275.573 599.18 274.251 598.199 272.672C597.26 271.051 596.791 269.067 596.791 266.72C596.791 264.117 597.41 261.835 598.647 259.872C599.927 257.867 601.74 256.309 604.087 255.2C606.434 254.091 609.25 253.536 612.535 253.536C615.991 253.536 618.935 254.176 621.367 255.456C623.842 256.736 625.783 258.485 627.191 260.704C628.642 262.923 629.538 265.461 629.879 268.32L622.775 268.704C622.562 266.955 622.028 265.419 621.175 264.096C620.322 262.731 619.17 261.685 617.719 260.96C616.268 260.192 614.498 259.808 612.407 259.808C609.762 259.808 607.671 260.427 606.135 261.664C604.642 262.859 603.895 264.459 603.895 266.464C603.895 267.744 604.194 268.832 604.791 269.728C605.431 270.581 606.54 271.328 608.119 271.968C609.74 272.608 612.023 273.291 614.967 274.016C618.892 274.912 622.007 276.021 624.311 277.344C626.658 278.624 628.322 280.139 629.303 281.888C630.284 283.637 630.775 285.621 630.775 287.84C630.775 290.528 630.071 292.875 628.663 294.88C627.298 296.843 625.378 298.357 622.903 299.424C620.428 300.491 617.548 301.024 614.263 301.024Z" fill="black"/>
</svg>
